<svg preserveAspectRatio="none" width="100%" height="100%" overflow="visible" style="display: block;" viewBox="0 0 48 30" fill="none" xmlns="http://www.w3.org/2000/svg">
<g id="Group 1696">
<path id="Path 1806" d="M37.1143 0C45.5057 4.12246 48.9171 14.1789 44.7429 22.4661C43.0971 25.7336 40.4143 28.3747 37.1143 30H48V0H37.1143Z" fill="var(--fill-0, #1A1A1A)"/>
<path id="Ellipse 130" d="M29.5543 23.4989C34.3071 23.4989 38.16 19.6938 38.16 15C38.16 10.3062 34.3071 6.50113 29.5543 6.50113C24.8015 6.50113 20.9486 10.3062 20.9486 15C20.9486 19.6938 24.8015 23.4989 29.5543 23.4989Z" fill="var(--fill-0, #1A1A1A)"/>
<path id="Path 1807" d="M15.2486 23.9983H6.63429V17.9966H12.8657C12.5057 16.0158 12.5057 13.9842 12.8657 11.9949H6.63429V5.99323H15.2486C16.8857 3.47065 19.1657 1.41366 21.8743 0.0592551V0H0V30H21.8743V29.9323C19.1743 28.5694 16.8857 26.5209 15.2486 23.9983Z" fill="var(--fill-0, #1A1A1A)"/>
</g>
</svg>
