<svg preserveAspectRatio="none" width="100%" height="100%" overflow="visible" style="display: block;" viewBox="0 0 219 44" fill="none" xmlns="http://www.w3.org/2000/svg">
<g id="Vector">
<path d="M18.2191 14.542C19.4258 14.542 20.4399 13.5899 20.4399 12.3833C20.4399 11.2404 19.424 10.2246 18.2191 10.2246H9.71201V2.47667C9.71201 1.14294 8.5689 0 7.23675 0C5.90459 0 4.82509 1.14294 4.82509 2.47667V10.2246H2.15901C1.0159 10.2246 0 11.1768 0 12.3833C0 13.5263 1.0159 14.542 2.15901 14.542H4.82509V34.3554C4.82509 41.024 8.82509 43.6279 14.0936 43.6279C15.9982 43.6279 17.5212 43.3099 18.9187 42.7393C19.7438 42.4213 20.3145 41.7236 20.3145 40.835C20.3145 39.692 19.3622 38.7399 18.2191 38.7399C17.8375 38.7399 16.9488 39.1851 15.235 39.1851C11.9346 39.1851 9.71201 37.7241 9.71201 33.723V14.5438H18.2191V14.542Z" fill="#1A1A1A"/>
<path d="M95.3595 26.4501C95.3833 16.7339 87.5295 8.83814 77.8178 8.81441C68.106 8.79068 60.2138 16.648 60.19 26.3642C60.1663 36.0804 68.02 43.9762 77.7318 43.9999C87.4436 44.0237 95.3358 36.1664 95.3595 26.4501Z" fill="#1A1A1A"/>
<path d="M39.8 43.9987C49.5118 43.975 57.3655 36.0792 57.3417 26.363C57.318 16.6468 49.4258 8.78947 39.714 8.8132C30.0022 8.83692 22.1485 16.7327 22.1722 26.4489C22.196 36.1651 30.0882 44.0225 39.8 43.9987Z" fill="#1A1A1A"/>
<path d="M157.574 26.4419C157.594 16.7257 149.738 8.83266 140.026 8.81232C130.314 8.79198 122.425 16.652 122.404 26.3683C122.384 36.0845 130.241 43.9775 139.952 43.9979C149.664 44.0182 157.554 36.1581 157.574 26.4419Z" fill="#1A1A1A"/>
<path d="M117.5 14.542C118.707 14.542 119.723 13.5899 119.723 12.3833C119.723 11.2404 118.707 10.2246 117.5 10.2246H108.993V2.47667C108.993 1.14294 107.85 0 106.518 0C105.186 0 104.106 1.14294 104.106 2.47667V10.2246H101.44C100.297 10.2246 99.2809 11.1768 99.2809 12.3833C99.2809 13.5263 100.297 14.542 101.44 14.542H104.106V34.3554C104.106 41.024 108.106 43.6279 113.375 43.6279C115.279 43.6279 116.802 43.3099 118.2 42.7393C119.025 42.4213 119.595 41.7236 119.595 40.835C119.595 39.692 118.643 38.7399 117.5 38.7399C117.118 38.7399 116.23 39.1851 114.516 39.1851C111.216 39.1851 108.993 37.7241 108.993 33.723V14.5438H117.5V14.542Z" fill="#1A1A1A"/>
<path d="M216.781 38.7381C216.399 38.7381 215.511 39.1833 213.797 39.1833C210.496 39.1833 208.274 37.7224 208.274 33.7212V14.542H216.779C217.986 14.542 219 13.5899 219 12.3833C219 11.2404 217.984 10.2246 216.779 10.2246H208.274V2.47667C208.274 1.14294 207.131 0 205.799 0C204.466 0 203.387 1.14294 203.387 2.47667V10.2246H200.721C199.578 10.2246 198.562 11.1768 198.562 12.3833C198.562 13.5263 199.578 14.542 200.721 14.542H203.387V34.3554C203.387 41.024 207.387 43.6279 212.655 43.6279C214.56 43.6279 216.083 43.3099 217.481 42.7393C218.306 42.4213 218.876 41.7236 218.876 40.835C218.876 39.692 217.924 38.7399 216.781 38.7399V38.7381Z" fill="#1A1A1A"/>
<path d="M195.447 26.442C195.467 16.7258 187.611 8.83274 177.899 8.8124C168.187 8.79207 160.297 16.6521 160.277 26.3684C160.257 36.0846 168.113 43.9776 177.825 43.998C187.537 44.0183 195.426 36.1582 195.447 26.442Z" fill="#1A1A1A"/>
<path d="M83.1378 41.5027C74.7703 35.4966 64.818 31.5607 54.0283 30.439C53.7332 30.409 53.4382 30.3807 53.1413 30.3524C52.606 30.2888 52.1572 31.188 52.1148 31.2286C50.1307 35.9294 45.4806 39.2292 40.0601 39.2292C32.8375 39.2292 26.9806 33.3714 26.9806 26.1446C26.9806 18.9177 32.8357 13.0599 40.0601 13.0599C45.3569 13.0599 49.917 16.2096 51.9735 20.7372C52.0141 20.8008 52.2774 21.8572 53.0848 21.9455C53.3905 21.919 53.6961 21.889 54.0018 21.8572C64.8958 20.7302 74.9364 16.7325 83.3551 10.6327C83.8834 10.2458 84.9081 10.827 84.9329 11.705C84.2686 16.4234 83.9258 21.2442 83.9258 26.1463C83.9258 31.0484 84.2597 35.7386 84.9064 40.3951C85.2562 43.6084 81.0671 40.0136 83.1378 41.501V41.5027Z" fill="var(--fill-0, white)"/>
<path d="M183.138 41.5027C174.77 35.4966 164.818 31.5607 154.028 30.439C153.733 30.409 153.438 30.3807 153.141 30.3524C152.327 30.2782 152.143 31.1898 152.115 31.2286C150.131 35.9294 145.481 39.2292 140.06 39.2292C132.836 39.2292 126.981 33.3714 126.981 26.1446C126.981 18.9177 132.836 13.0599 140.06 13.0599C145.357 13.0599 149.917 16.2096 151.973 20.7372C152.014 20.8008 152.277 21.8572 153.085 21.9455C153.39 21.919 153.696 21.889 154.002 21.8572C164.896 20.7302 174.936 16.7325 183.355 10.6327C183.883 10.2458 184.908 10.827 184.933 11.705C184.269 16.4234 183.926 21.2442 183.926 26.1463C183.926 31.0484 184.26 35.7386 184.906 40.3951C185.256 43.6084 181.067 40.0136 183.138 41.501V41.5027Z" fill="var(--fill-0, white)"/>
</g>
</svg>
